<?xml version="1.0" encoding="UTF-8"?>
<svg version="1.1" xmlns="http://www.w3.org/2000/svg" width="622" height="622" viewBox="0 0 622 622">
<path d="M0 0 C2.8105 2.8105 1.2466 10.6865 1.25 14.625 C1.2507 15.3135 1.2513 16.002 1.252 16.7114 C1.1933 54.7845 -2.9384 96.4008 -31.1875 124.6875 C-35.5009 128.9582 -39.9915 132.5698 -45 136 C-44.011 136.103 -43.0221 136.2061 -42.0032 136.3123 C-32.6532 137.3465 -23.7852 139.1157 -14.6875 141.5625 C-1.984 144.8657 10.779 147.8052 23.625 150.5 C24.5131 150.6864 25.4012 150.8728 26.3163 151.0648 C43.1225 154.5676 60.0128 157.5524 76.9497 160.3496 C77.8823 160.5058 78.815 160.6619 79.7759 160.8228 C81.5002 161.1109 83.2253 161.3939 84.9515 161.6701 C89.1364 162.3716 93.289 163.2124 97.408 164.2329 C97.8116 164.3295 97.8116 164.3295 99.8545 164.8185 C103.0589 166.5831 103.7393 168.6204 105 172 C105.3742 175.2415 105.3742 175.2415 105.3723 178.7917 C105.3741 179.119 105.3741 179.119 105.3832 180.7749 C105.3912 182.9374 105.3775 185.0992 105.3633 187.2617 C105.3636 188.7954 105.365 190.3291 105.3674 191.8628 C105.3693 195.958 105.3507 200.0529 105.3264 204.1481 C105.3125 206.6899 105.3037 209.2318 105.2965 211.7736 C105.22 237.5526 104.8337 263.2776 103 289 C102.9757 289.3548 102.9757 289.3548 102.8528 291.1505 C97.3999 370.7551 74.3322 452.9193 21 514 C20.3619 514.7386 19.7238 515.4773 19.0664 516.2383 C17.39 518.1702 15.6984 520.0874 14 522 C13.3039 522.7889 12.6078 523.5778 11.8906 524.3906 C4.3994 532.8117 -3.4154 540.6971 -12 548 C-12.8869 548.776 -13.7738 549.552 -14.6875 550.3516 C-27.9615 561.885 -42.1347 572.6048 -57 582 C-57.7111 582.4552 -58.4222 582.9104 -59.1548 583.3794 C-72.0312 591.6059 -85.1817 599.1842 -98.7183 606.2705 C-101.0095 607.478 -103.2915 608.696 -105.5669 609.9326 C-108.6371 611.601 -111.722 613.2387 -114.8181 614.8584 C-116.5664 615.7816 -118.3003 616.732 -120.0334 617.6833 C-128.745 622.176 -136.8704 623.9011 -146.5298 621.3254 C-148.7898 620.4375 -150.8677 619.4103 -153 618.25 C-153.7878 617.8495 -154.5756 617.449 -155.3872 617.0364 C-157.9431 615.7229 -160.4719 614.3661 -163 613 C-163.8775 612.5345 -164.7551 612.069 -165.6592 611.5894 C-171.221 608.638 -176.7399 605.616 -182.2358 602.5439 C-184.0591 601.5256 -185.8849 600.5118 -187.7134 599.5029 C-200.6629 592.3573 -212.9744 584.6089 -225 576 C-225.8074 575.4246 -226.6149 574.8492 -227.4468 574.2563 C-238.0731 566.6535 -248.282 558.7362 -258 550 C-258.5533 549.5031 -259.1067 549.0061 -259.6768 548.4941 C-264.9058 543.7804 -270.0357 538.9936 -275 534 C-276.223 532.7985 -277.4471 531.5981 -278.6719 530.3984 C-286.2617 522.931 -293.5103 515.4623 -300 507 C-301.0136 505.7142 -302.028 504.4291 -303.043 503.1445 C-354.8403 437.0922 -374.7934 353.6457 -379.0586 271.207 C-379.1017 270.3778 -379.1447 269.5486 -379.1891 268.6943 C-380.136 250.0417 -380.4081 231.3999 -380.4255 212.7256 C-380.4311 208.1745 -380.4695 203.6241 -380.5143 199.0732 C-380.5439 195.5096 -380.5513 191.9462 -380.5523 188.3825 C-380.5564 186.7008 -380.5688 185.0191 -380.5898 183.3375 C-380.6166 181.0191 -380.6119 178.7028 -380.5994 176.3843 C-380.6019 175.7292 -380.6019 175.7292 -380.6147 172.4139 C-379.8316 168.0647 -378.4862 166.6508 -375 164 C-372.3332 162.9818 -372.3332 162.9818 -369.4304 162.4211 C-368.3363 162.1991 -367.2421 161.977 -366.1148 161.7482 C-364.9361 161.5284 -363.7574 161.3085 -362.543 161.082 C-360.003 160.5742 -357.4631 160.0659 -354.9233 159.5571 C-353.6001 159.2985 -352.2769 159.0402 -350.9536 158.7823 C-344.6559 157.5467 -338.3871 156.1743 -332.1133 154.8242 C-329.648 154.3005 -327.1825 153.7777 -324.7168 153.2559 C-320.9753 152.464 -317.2341 151.6708 -313.4939 150.8728 C-309.7846 150.0817 -306.0741 149.2961 -302.3633 148.5117 C-301.2508 148.2732 -300.1382 148.0347 -298.992 147.789 C-292.996 146.5282 -287.1024 145.5616 -281 145 C-282.5872 141.5267 -283.5336 140.5859 -287 139 C-288.542 137.7549 -290.061 136.4812 -291.5625 135.1875 C-299.4571 128.7883 -308.2689 125.5964 -318 123 C-319.338 112.9401 -319.338 112.9401 -316.5938 108.9609 C-314.1784 107.0008 -311.7185 105.5183 -309 104 C-308.3938 103.6431 -307.7876 103.2862 -307.1631 102.9185 C-297.2452 97.0952 -287.2208 92.6555 -276 90 C-275.2573 89.816 -274.5147 89.632 -273.7495 89.4424 C-265.3669 87.6277 -256.9785 87.6278 -248.4414 87.6294 C-245.9003 87.625 -243.3611 87.5887 -240.8203 87.5508 C-219.806 87.4059 -200.5289 92.4968 -184 106 C-183.1582 106.6548 -182.3165 107.3097 -181.4492 107.9844 C-160.3925 125.4061 -154.6487 153.1059 -152 179 C-151.01 175.37 -150.02 171.74 -149 168 C-150.32 167.34 -151.64 166.68 -153 166 C-153.7295 164.157 -153.7295 164.157 -154.0469 161.8555 C-154.1699 160.9694 -154.2929 160.0833 -154.4197 159.1704 C-154.4742 158.6782 -154.4742 158.6782 -154.75 156.1875 C-154.81 155.6695 -154.81 155.6695 -155.1135 153.0483 C-156.1234 143.087 -156.3557 133.1306 -156.4375 123.125 C-156.4496 122.3592 -156.4618 121.5935 -156.4742 120.8045 C-156.8569 92.3224 -146.881 69.9781 -127.3555 49.1836 C-125 47 -125 47 -123 47 C-123 46.34 -123 45.68 -123 45 C-120.787 43.177 -118.5755 41.4817 -116.25 39.8125 C-115.5612 39.3171 -114.8723 38.8217 -114.1626 38.3113 C-94.3299 24.2097 -73.3565 18.2366 -49.8582 13.145 C-27.3329 8.2497 -27.3329 8.2497 -18 2.75 C-12.0038 -0.3946 -6.6822 -0.8963 0 0 Z M-69.875 147.375 C-70.6622 147.7315 -71.4494 148.088 -72.2605 148.4553 C-73.9566 149.2271 -75.6512 150.0024 -77.3442 150.7808 C-79.1239 151.5978 -80.9062 152.4093 -82.6909 153.2153 C-103.6821 162.7073 -123.1765 173.4908 -132.2344 196.0781 C-135.9614 208.5668 -131.2507 220.008 -126.875 231.75 C-126.4014 233.0439 -125.9287 234.3382 -125.457 235.6328 C-124.314 238.7588 -123.1615 241.8809 -122 245 C-121.3974 245.0301 -120.7949 245.0603 -120.1741 245.0913 C-113.6077 245.5855 -113.6077 245.5855 -110.6523 247.6016 C-110.0864 248.2693 -109.5205 248.937 -108.9375 249.625 C-108.6107 249.9879 -108.6107 249.9879 -106.957 251.8242 C-106.3112 252.5422 -105.6654 253.2602 -105 254 C-103.7286 255.1683 -102.4369 256.3149 -101.125 257.4375 C-98.1009 260.0371 -95.1348 262.6885 -92.1875 265.375 C-88.7982 268.4445 -85.335 271.35 -81.75 274.1875 C-70.9824 282.9266 -61.4494 293.0205 -53 304 C-52.2639 304.9307 -51.5279 305.8614 -50.7695 306.8203 C-31.1613 332.1321 -19.1097 361.8515 -18 394 C-17.9728 394.6993 -17.9455 395.3986 -17.9175 396.1191 C-17.2776 414.5829 -19.4108 432.6742 -26 450 C-26.2473 450.6527 -26.4947 451.3055 -26.7495 451.978 C-36.7477 477.7172 -55.1268 499.2626 -75.8672 517.1562 C-78.2643 519.2285 -80.6333 521.3305 -83 523.4375 C-83.3816 523.7772 -83.3816 523.7772 -85.3125 525.4961 C-85.8694 525.9924 -86.4262 526.4887 -87 527 C-86.34 527.33 -85.68 527.66 -85 528 C-83.2827 527.2024 -83.2827 527.2024 -81.2109 525.8945 C-80.442 525.4115 -79.6731 524.9285 -78.8809 524.4309 C-78.0539 523.8968 -77.227 523.3628 -76.375 522.8125 C-75.5249 522.2688 -74.6747 521.725 -73.7988 521.1648 C-65.5629 515.8316 -57.71 510.0628 -50 504 C-49.0048 503.2188 -48.0097 502.4377 -46.9844 501.6328 C-32.6619 490.1339 -19.3521 477.4534 -8 463 C-7.6043 462.5069 -7.6043 462.5069 -5.6016 460.0117 C31.4088 413.1358 50.1815 355.4077 57.3125 296.6875 C57.3939 296.0217 57.4753 295.3559 57.5592 294.6699 C59.4822 278.6764 60.1333 262.6532 60.5625 246.5625 C60.5833 245.8033 60.6042 245.0441 60.6257 244.2619 C61.4687 213.346 61.4687 213.346 60 205 C51.9818 202.9298 43.9459 201.1015 35.8281 199.4688 C33.4716 198.9889 31.1152 198.5088 28.7588 198.0283 C27.5345 197.7794 26.3103 197.5305 25.049 197.274 C-12.8763 189.5467 -50.7125 181.4273 -88 171 C-88 167.37 -88 163.74 -88 160 C-87.2281 159.6219 -86.4562 159.2438 -85.6609 158.8542 C-82.7903 157.4446 -79.9225 156.0294 -77.0564 154.6106 C-75.8169 153.9984 -74.5764 153.3883 -73.3347 152.7805 C-71.5471 151.905 -69.7638 151.021 -67.9805 150.1367 C-66.9069 149.6078 -65.8334 149.0789 -64.7273 148.5339 C-62.3527 147.1984 -60.764 146.0423 -59 144 C-63.0947 144 -66.217 145.7061 -69.875 147.375 Z M-245 174 C-245 176.64 -245 179.28 -245 182 C-246.0634 182.2191 -247.1268 182.4383 -248.2224 182.6641 C-262.3756 185.6016 -276.4688 188.7908 -290.5625 192 C-294.0204 192.7862 -297.4783 193.5719 -300.9364 194.3572 C-303.167 194.8639 -305.3975 195.3712 -307.6278 195.8792 C-312.6228 197.0151 -317.6193 198.1408 -322.6245 199.2305 C-323.471 199.4153 -324.3175 199.6001 -325.1897 199.7905 C-326.7452 200.1288 -328.3013 200.464 -329.8583 200.7954 C-334.8899 201.8899 -334.8899 201.8899 -336 203 C-336.0846 205.6721 -336.1067 208.3165 -336.082 210.9883 C-336.0778 211.7993 -336.0736 212.6103 -336.0693 213.4459 C-336.0532 215.964 -336.0283 218.482 -336 221 C-335.9921 221.7312 -335.9842 222.4624 -335.976 223.2158 C-335.2242 285.7231 -328.7026 347.6317 -302 405 C-301.6176 405.8252 -301.2353 406.6503 -300.8413 407.5005 C-292.2259 425.8821 -281.869 443.276 -269 459 C-268.2639 459.9268 -267.5279 460.8537 -266.7695 461.8086 C-255.236 476.2 -242.5419 489.6274 -228 501 C-227.6912 501.2444 -227.6912 501.2444 -226.1284 502.481 C-216.3463 510.2072 -206.3204 517.3552 -195.7246 523.9268 C-194.1833 524.8859 -192.6606 525.8746 -191.1406 526.8672 C-190.7874 527.0541 -190.7874 527.0541 -189 528 C-188.34 527.67 -187.68 527.34 -187 527 C-187.99 526.67 -188.98 526.34 -190 526 C-190 525.34 -190 524.68 -190 524 C-191.293 522.6953 -191.293 522.6953 -193.1875 521.125 C-224.5312 494.3858 -250.7522 460.2278 -255 418 C-255.1474 415.2521 -255.1867 412.5093 -255.2031 409.7578 C-255.2088 408.9906 -255.2145 408.2233 -255.2204 407.4328 C-255.2298 405.8143 -255.2364 404.1957 -255.2402 402.5771 C-255.2498 400.1657 -255.2809 397.755 -255.3125 395.3438 C-255.4129 380.8045 -253.7824 366.4909 -249 352.6875 C-248.7059 351.8263 -248.4117 350.9652 -248.1086 350.0779 C-242.5098 334.4269 -234.2116 320.0675 -224 307 C-223.2382 306.0164 -222.4763 305.0329 -221.6914 304.0195 C-217.3433 298.5561 -212.7266 293.5741 -207.6523 288.7773 C-206 287 -206 287 -206 285 C-205.4586 284.7873 -204.9172 284.5746 -204.3594 284.3555 C-201.1467 282.5098 -198.7947 279.9602 -196.25 277.3125 C-192.2916 273.2732 -188.2986 269.3791 -183.9922 265.707 C-181.6242 263.678 -179.313 261.5915 -177 259.5 C-173.2653 256.1278 -169.4984 252.7982 -165.6914 249.5078 C-164 248 -164 248 -162.5273 246.3672 C-160.733 244.761 -159.3465 244.4046 -157 244 C-157.4233 225.8356 -164.8792 208.3427 -177.5664 195.4023 C-185.5659 188.2747 -194.7462 186.8284 -205 185 C-216.8014 182.8647 -227.7983 180.3678 -239 176 C-240.9963 175.3223 -242.9953 174.6523 -245 174 Z M-155.8086 360.1875 C-158.8185 364.7665 -160.452 368.1063 -159.4375 373.5625 C-158.2965 377.6286 -156.7359 380.7321 -154 384 C-152.9275 384.495 -151.855 384.99 -150.75 385.5 C-148 388 -148 388 -147.5732 390.5266 C-147.4791 402.1008 -149.9829 412.9448 -152.5 424.1875 C-153.1455 427.129 -153.787 430.0713 -154.4259 433.0142 C-154.8218 434.8316 -155.2223 436.648 -155.6278 438.4632 C-155.808 439.2787 -155.9882 440.0941 -156.1738 440.9343 C-156.3337 441.6493 -156.4936 442.3643 -156.6583 443.101 C-157 445 -157 445 -157 448 C-143.8 448 -130.6 448 -117 448 C-118.2086 441.3526 -119.4381 434.7912 -120.9453 428.2188 C-121.304 426.6186 -121.662 425.0184 -122.0195 423.418 C-122.5713 420.9552 -123.1265 418.4934 -123.6919 416.0337 C-128.4847 395.1262 -128.4847 395.1262 -127 389 C-125.1364 387.0757 -123.3227 385.7946 -121.043 384.3945 C-117.2038 381.7739 -115.577 378.0113 -114.3086 373.5898 C-113.669 368.2222 -116.3934 363.192 -119.5117 358.9375 C-124.4912 353.5518 -130.2241 350.6179 -137.4375 349.4375 C-144.9329 350.621 -151.2134 354.1129 -155.8086 360.1875 Z " fill="#FFFFFF" transform="translate(448,0)"/>
<path d="M0 0 C2.8105 2.8105 1.2466 10.6865 1.25 14.625 C1.2507 15.3135 1.2513 16.002 1.252 16.7114 C1.1933 54.7845 -2.9384 96.4008 -31.1875 124.6875 C-35.5009 128.9582 -39.9915 132.5698 -45 136 C-44.011 136.103 -43.0221 136.2061 -42.0032 136.3123 C-32.6532 137.3465 -23.7852 139.1157 -14.6875 141.5625 C-1.984 144.8657 10.779 147.8052 23.625 150.5 C24.5131 150.6864 25.4012 150.8728 26.3163 151.0648 C43.1225 154.5676 60.0128 157.5524 76.9497 160.3496 C77.8823 160.5058 78.815 160.6619 79.7759 160.8228 C81.5002 161.1109 83.2253 161.3939 84.9515 161.6701 C89.1364 162.3716 93.289 163.2124 97.408 164.2329 C97.8116 164.3295 97.8116 164.3295 99.8545 164.8185 C103.0589 166.5831 103.7393 168.6204 105 172 C105.3742 175.2415 105.3742 175.2415 105.3723 178.7917 C105.3741 179.119 105.3741 179.119 105.3832 180.7749 C105.3912 182.9374 105.3775 185.0992 105.3633 187.2617 C105.3636 188.7954 105.365 190.3291 105.3674 191.8628 C105.3693 195.958 105.3507 200.0529 105.3264 204.1481 C105.3125 206.6899 105.3037 209.2318 105.2965 211.7736 C105.22 237.5526 104.8337 263.2776 103 289 C102.9757 289.3548 102.9757 289.3548 102.8528 291.1505 C97.3999 370.7551 74.3322 452.9193 21 514 C20.3619 514.7386 19.7238 515.4773 19.0664 516.2383 C17.39 518.1702 15.6984 520.0874 14 522 C13.3039 522.7889 12.6078 523.5778 11.8906 524.3906 C4.3994 532.8117 -3.4154 540.6971 -12 548 C-12.8869 548.776 -13.7738 549.552 -14.6875 550.3516 C-27.9615 561.885 -42.1347 572.6048 -57 582 C-57.7111 582.4552 -58.4222 582.9104 -59.1548 583.3794 C-72.0312 591.6059 -85.1817 599.1842 -98.7183 606.2705 C-101.0095 607.478 -103.2915 608.696 -105.5669 609.9326 C-108.6371 611.601 -111.722 613.2387 -114.8181 614.8584 C-116.5664 615.7816 -118.3003 616.732 -120.0334 617.6833 C-128.745 622.176 -136.8704 623.9011 -146.5298 621.3254 C-148.7898 620.4375 -150.8677 619.4103 -153 618.25 C-153.7878 617.8495 -154.5756 617.449 -155.3872 617.0364 C-157.9431 615.7229 -160.4719 614.3661 -163 613 C-163.8775 612.5345 -164.7551 612.069 -165.6592 611.5894 C-171.221 608.638 -176.7399 605.616 -182.2358 602.5439 C-184.0591 601.5256 -185.8849 600.5118 -187.7134 599.5029 C-200.6629 592.3573 -212.9744 584.6089 -225 576 C-225.8074 575.4246 -226.6149 574.8492 -227.4468 574.2563 C-238.0731 566.6535 -248.282 558.7362 -258 550 C-258.5533 549.5031 -259.1067 549.0061 -259.6768 548.4941 C-264.9058 543.7804 -270.0357 538.9936 -275 534 C-276.223 532.7985 -277.4471 531.5981 -278.6719 530.3984 C-286.2617 522.931 -293.5103 515.4623 -300 507 C-301.0136 505.7142 -302.028 504.4291 -303.043 503.1445 C-354.8403 437.0922 -374.7934 353.6457 -379.0586 271.207 C-379.1017 270.3778 -379.1447 269.5486 -379.1891 268.6943 C-380.136 250.0417 -380.4081 231.3999 -380.4255 212.7256 C-380.4311 208.1745 -380.4695 203.6241 -380.5143 199.0732 C-380.5439 195.5096 -380.5513 191.9462 -380.5523 188.3825 C-380.5564 186.7008 -380.5688 185.0191 -380.5898 183.3375 C-380.6166 181.0191 -380.6119 178.7028 -380.5994 176.3843 C-380.6019 175.7292 -380.6019 175.7292 -380.6147 172.4139 C-379.8316 168.0647 -378.4862 166.6508 -375 164 C-372.3332 162.9818 -372.3332 162.9818 -369.4304 162.4211 C-368.3363 162.1991 -367.2421 161.977 -366.1148 161.7482 C-364.9361 161.5284 -363.7574 161.3085 -362.543 161.082 C-360.003 160.5742 -357.4631 160.0659 -354.9233 159.5571 C-353.6001 159.2985 -352.2769 159.0402 -350.9536 158.7823 C-344.6559 157.5467 -338.3871 156.1743 -332.1133 154.8242 C-329.648 154.3005 -327.1825 153.7777 -324.7168 153.2559 C-320.9753 152.464 -317.2341 151.6708 -313.4939 150.8728 C-309.7846 150.0817 -306.0741 149.2961 -302.3633 148.5117 C-301.2508 148.2732 -300.1382 148.0347 -298.992 147.789 C-292.996 146.5282 -287.1024 145.5616 -281 145 C-282.5872 141.5267 -283.5336 140.5859 -287 139 C-288.542 137.7549 -290.061 136.4812 -291.5625 135.1875 C-299.4571 128.7883 -308.2689 125.5964 -318 123 C-319.338 112.9401 -319.338 112.9401 -316.5938 108.9609 C-314.1784 107.0008 -311.7185 105.5183 -309 104 C-308.3938 103.6431 -307.7876 103.2862 -307.1631 102.9185 C-297.2452 97.0952 -287.2208 92.6555 -276 90 C-275.2573 89.816 -274.5147 89.632 -273.7495 89.4424 C-265.3669 87.6277 -256.9785 87.6278 -248.4414 87.6294 C-245.9003 87.625 -243.3611 87.5887 -240.8203 87.5508 C-219.806 87.4059 -200.5289 92.4968 -184 106 C-183.1582 106.6548 -182.3165 107.3097 -181.4492 107.9844 C-160.3925 125.4061 -154.6487 153.1059 -152 179 C-151.01 175.37 -150.02 171.74 -149 168 C-150.32 167.34 -151.64 166.68 -153 166 C-153.7295 164.157 -153.7295 164.157 -154.0469 161.8555 C-154.1699 160.9694 -154.2929 160.0833 -154.4197 159.1704 C-154.4742 158.6782 -154.4742 158.6782 -154.75 156.1875 C-154.81 155.6695 -154.81 155.6695 -155.1135 153.0483 C-156.1234 143.087 -156.3557 133.1306 -156.4375 123.125 C-156.4496 122.3592 -156.4618 121.5935 -156.4742 120.8045 C-156.8569 92.3224 -146.881 69.9781 -127.3555 49.1836 C-125 47 -125 47 -123 47 C-123 46.34 -123 45.68 -123 45 C-120.787 43.177 -118.5755 41.4817 -116.25 39.8125 C-115.5612 39.3171 -114.8723 38.8217 -114.1626 38.3113 C-94.3299 24.2097 -73.3565 18.2366 -49.8582 13.145 C-27.3329 8.2497 -27.3329 8.2497 -18 2.75 C-12.0038 -0.3946 -6.6822 -0.8963 0 0 Z M-9.5 9.3203 C-20.4846 14.9842 -31.7162 17.6019 -43.7305 20.2705 C-70.2865 26.1957 -95.172 33.6543 -116 52 C-116 52.66 -116 53.32 -116 54 C-116.5646 54.2333 -117.1292 54.4666 -117.7109 54.707 C-132.7773 63.2172 -142.3475 84.6677 -147.0273 100.4688 C-150.9941 116.994 -150.0005 134.593 -146 151 C-142.7127 146.069 -140.5109 140.5989 -138.125 135.1875 C-137.9829 134.8656 -137.9829 134.8656 -137.264 133.2363 C-128.7646 113.7928 -122.7852 93.3883 -117 73 C-115.35 73 -113.7 73 -112 73 C-112.0883 73.3143 -112.0883 73.3143 -112.5349 74.905 C-118.9578 97.9964 -118.9578 97.9964 -119 109 C-118.4689 108.3129 -117.9378 107.6259 -117.3906 106.918 C-114.1387 102.9487 -110.6119 99.2632 -107.0703 95.5527 C-103 91.2167 -103 91.2167 -103 89 C-102.34 89 -101.68 89 -101 89 C-101 88.34 -101 87.68 -101 87 C-100.4341 86.7654 -99.8682 86.5308 -99.2852 86.2891 C-96.4633 84.6972 -94.6555 82.7355 -92.4375 80.375 C-87.3534 75.2021 -81.9767 71.0826 -76 67 C-74.781 66.1606 -73.5622 65.3207 -72.3438 64.4805 C-69.6487 62.6253 -66.9518 60.7729 -64.2539 58.9219 C-62.8359 57.9479 -61.418 56.974 -60 56 C-59.6422 55.7548 -59.6422 55.7548 -57.8315 54.5137 C-47.0989 47.1357 -36.4211 39.6174 -27.3164 30.2344 C-24.7975 27.8046 -23.4323 27.2942 -20 27 C-21.2136 32.7162 -23.3101 36.0785 -27.4375 40.25 C-27.9739 40.8086 -28.5103 41.3673 -29.063 41.9429 C-30.168 43.0888 -31.2787 44.2293 -32.395 45.3643 C-33.8621 46.8594 -35.3054 48.3778 -36.7461 49.8984 C-43.0379 56.4239 -49.7878 61.99 -56.9814 67.4609 C-60.02 69.7777 -63.0385 72.1201 -66.0564 74.4636 C-67.6009 75.6629 -69.1471 76.8598 -70.6956 78.054 C-75.248 81.5785 -79.6581 85.2188 -84 89 C-79.9535 90.3488 -76.595 89.4164 -72.5 88.6875 C-62.701 87.0313 -52.8901 85.9414 -43 85 C-43 86.65 -43 88.3 -43 90 C-44.2981 90.1289 -45.5962 90.2578 -46.9336 90.3906 C-68.8955 92.8447 -95.5068 98.5511 -109.9297 116.6016 C-110.3654 117.1662 -110.8011 117.7308 -111.25 118.3125 C-111.7218 118.9222 -112.1936 119.532 -112.6797 120.1602 C-131.6141 145.0685 -146.349 175.4041 -148 207 C-149.65 207 -151.3 207 -153 207 C-153.2449 206.3232 -153.4898 205.6465 -153.7422 204.9492 C-158.1113 194.7048 -164.81 185.4222 -172 177 C-172.9055 175.8778 -173.809 174.754 -174.7109 173.6289 C-189.1383 155.8811 -205.6234 146.742 -228.3125 143.5312 C-230.5371 143.3037 -232.7683 143.1417 -235 143 C-235 141.35 -235 139.7 -235 138 C-233.9688 138.165 -232.9375 138.33 -231.875 138.5 C-225.6113 139.3027 -219.3019 139.0797 -213 139 C-216.4206 135.1021 -220.2821 132.9305 -224.8125 130.5625 C-225.5659 130.1685 -226.3193 129.7746 -227.0955 129.3687 C-240.8269 122.374 -256.4815 117.62 -272 118 C-272 116.35 -272 114.7 -272 113 C-246.8107 114.3152 -224.7276 116.2775 -203.5234 131.2656 C-201.3919 132.7307 -199.3436 133.9217 -197 135 C-197.33 133.02 -197.66 131.04 -198 129 C-194.4137 129.2344 -193.2064 129.7792 -190.7109 132.4492 C-189.9401 133.5179 -189.1692 134.5865 -188.375 135.6875 C-187.4999 136.8798 -186.6235 138.0711 -185.7461 139.2617 C-185.296 139.8797 -184.846 140.4976 -184.3823 141.1343 C-182.1463 144.1523 -179.7842 147.0678 -177.4375 150 C-172.9051 155.7049 -168.7373 161.5982 -164.6797 167.6484 C-164.1254 168.4245 -163.5711 169.2005 -163 170 C-162.67 170 -162.34 170 -162 170 C-162.5156 150.5014 -172.1317 131.466 -185.3438 117.5273 C-195.0257 108.364 -206.3204 101.9993 -219 98 C-220.0068 97.6803 -221.0135 97.3606 -222.0508 97.0312 C-248.4326 90.0734 -275.7899 96.3747 -299.1328 109.2891 C-302.1709 111.102 -305.1373 112.9188 -308 115 C-308 115.66 -308 116.32 -308 117 C-307.2498 117.2191 -306.4995 117.4383 -305.7266 117.6641 C-295.4417 120.8505 -287.4202 125.2703 -279.5938 132.6797 C-278 134 -278 134 -276 134 C-275.7731 134.5569 -275.5462 135.1137 -275.3125 135.6875 C-273.6258 138.6593 -271.4526 140.6161 -269 143 C-268.0629 143.9114 -267.1257 144.8227 -266.1602 145.7617 C-245.3666 165.5593 -223.7058 175.2013 -195.2944 179.4307 C-182.062 181.5201 -172.3328 186.4071 -164 197 C-163.5566 197.5607 -163.1131 198.1215 -162.6562 198.6992 C-148.8873 218.3376 -146.7141 248.9912 -150.1875 271.957 C-151.3794 278.5269 -153.6259 284.7748 -156 291 C-162.75 291.125 -162.75 291.125 -165 290 C-164.4431 281.9826 -162.7604 274.614 -160.6406 266.8848 C-160.4163 266.0372 -160.192 265.1896 -159.9609 264.3164 C-159.7526 263.5579 -159.5442 262.7993 -159.3296 262.0178 C-159 260 -159 260 -160 257 C-160.7734 257.7129 -161.5469 258.4257 -162.3438 259.1602 C-167.5146 263.918 -172.6997 268.6483 -178.0039 273.2578 C-184.5481 278.9696 -190.9223 284.7942 -197 291 C-199.3876 293.4069 -201.7806 295.7943 -204.2539 298.1133 C-229.7813 322.4312 -247.8453 358.1909 -249.2852 393.6211 C-250.2788 436.1152 -231.0432 470.3189 -202.5156 500.6406 C-198.4211 504.7916 -194.1647 508.7116 -189.7266 512.4922 C-188 514 -188 514 -186.3984 515.6953 C-185 517 -185 517 -183 517 C-183 517.66 -183 518.32 -183 519 C-181.707 520.2695 -181.707 520.2695 -179.8125 521.8125 C-156.7096 541.5034 -156.7096 541.5034 -154.0625 551.5625 C-154.0419 552.3669 -154.0213 553.1712 -154 554 C-161.4865 552.0343 -168.2258 549.2381 -175.125 545.75 C-176.1554 545.2313 -177.1859 544.7126 -178.2476 544.1782 C-205.985 529.929 -231.4477 511.4972 -254 490 C-254.7992 489.242 -255.5984 488.4841 -256.4219 487.7031 C-262.1045 482.1773 -267.1006 476.2236 -272 470 C-272.8044 468.9894 -273.6087 467.9787 -274.4375 466.9375 C-323.9133 404.2021 -339.5324 325.5128 -341.5625 247.4375 C-341.5731 247.0465 -341.5731 247.0465 -341.6267 245.0678 C-342.0636 228.7089 -342.0833 212.3637 -342 196 C-341.6656 195.9252 -341.6656 195.9252 -339.9731 195.5468 C-333.5353 194.1074 -327.0977 192.6671 -320.6603 191.2259 C-317.3542 190.4858 -314.048 189.746 -310.7417 189.0068 C-303.0885 187.2958 -295.4371 185.5773 -287.7872 183.8514 C-283.9778 182.995 -280.1662 182.1482 -276.3545 181.3018 C-273.9732 180.7667 -271.592 180.2312 -269.2109 179.6953 C-268.1059 179.4525 -267.0009 179.2096 -265.8625 178.9594 C-264.8539 178.7306 -263.8453 178.5018 -262.8062 178.2661 C-261.9223 178.069 -261.0384 177.8718 -260.1278 177.6687 C-258 177 -258 177 -256 175 C-257.0158 174.4057 -258.0316 173.8115 -259.0781 173.1992 C-260.4707 172.3653 -261.8612 171.5278 -263.25 170.6875 C-263.9793 170.2476 -264.7086 169.8077 -265.46 169.3545 C-271.5072 165.582 -276.1014 161.2189 -280.7656 155.8594 C-284.5044 153.71 -285.2128 153.9197 -289.2874 154.6982 C-290.3596 154.8988 -291.4318 155.0993 -292.5365 155.306 C-293.6794 155.535 -294.8224 155.764 -296 156 C-297.1364 156.2234 -298.2729 156.4468 -299.4438 156.6769 C-303.1784 157.4238 -306.9078 158.1935 -310.6367 158.9688 C-312.0104 159.2527 -313.3842 159.5366 -314.758 159.8202 C-317.6148 160.4105 -320.4712 161.0022 -323.3274 161.5952 C-326.9645 162.3503 -330.6022 163.1028 -334.24 163.8544 C-337.7474 164.5791 -341.2546 165.3051 -344.7617 166.0312 C-345.4171 166.1668 -346.0726 166.3024 -346.7479 166.4421 C-349.7842 167.0706 -352.8193 167.7037 -355.8519 168.3499 C-357.7969 168.7515 -359.7482 169.1252 -361.7069 169.4529 C-365.3211 170.0935 -367.8277 170.8996 -371.0276 172.7642 C-374.2881 178.1132 -373.6492 183.6385 -373.5586 189.7734 C-373.5552 191.1621 -373.5538 192.5508 -373.5543 193.9395 C-373.5485 197.6506 -373.5103 201.3608 -373.4639 205.0717 C-373.4286 208.1496 -373.4101 211.2276 -373.391 214.3056 C-373.2445 236.8975 -372.8799 259.4768 -371 282 C-370.9368 282.7594 -370.8737 283.5188 -370.8086 284.3013 C-364.2416 361.8016 -342.6032 440.2399 -292 501 C-291.5646 501.5256 -291.1292 502.0512 -290.6807 502.5928 C-283.5367 511.1881 -276.0041 519.205 -268 527 C-265.6966 529.2896 -263.4017 531.583 -261.1484 533.9219 C-256.6728 538.5355 -251.9228 542.6326 -246.9102 546.6523 C-243.9593 549.0329 -241.075 551.4806 -238.1875 553.9375 C-231.7078 559.3317 -224.9427 564.2251 -218 569 C-217.2567 569.5155 -216.5134 570.0309 -215.7476 570.562 C-197.0198 583.5021 -177.3761 594.7908 -157.2344 605.3655 C-155.9664 606.0315 -154.6999 606.7005 -153.4351 607.3725 C-151.667 608.309 -149.8903 609.229 -148.1133 610.1484 C-147.1005 610.6761 -146.0877 611.2039 -145.0442 611.7476 C-141.0675 613.3836 -137.4303 614.7049 -133.1449 613.4619 C-131.0974 612.5937 -129.1472 611.6188 -127.1797 610.582 C-126.447 610.2135 -125.7142 609.8449 -124.9593 609.4652 C-122.5881 608.2659 -120.2316 607.0404 -117.875 605.8125 C-116.2438 604.9777 -114.6121 604.1438 -112.98 603.3108 C-96.1645 594.6857 -79.6938 585.5479 -64 575 C-63.3626 574.5736 -62.7251 574.1473 -62.0684 573.708 C-52.7748 567.4719 -43.7634 560.9608 -35 554 C-34.5276 553.6249 -34.5276 553.6249 -32.1367 551.7266 C-26.4248 547.1215 -20.9519 542.3051 -15.5547 537.3359 C-13.3806 535.348 -11.1758 533.4147 -8.9375 531.5 C-1.3543 524.8958 5.4365 517.5989 12 510 C12.5323 509.3904 13.0646 508.7807 13.613 508.1526 C29.7642 489.551 42.8247 468.9134 54 447 C54.1987 446.6149 54.1987 446.6149 55.2041 444.666 C66.4829 422.6075 74.7001 398.9171 81 375 C81.2559 374.0487 81.5118 373.0973 81.7754 372.1172 C89.6112 342.6783 93.965 312.3645 96 282 C96.0256 281.6248 96.0256 281.6248 96.155 279.7261 C97.7441 256.0782 98.2206 232.42 98.3037 208.7245 C98.3125 206.6958 98.3263 204.6672 98.3414 202.6385 C98.3651 198.8253 98.3676 195.0126 98.3633 191.1992 C98.3678 190.6267 98.3678 190.6267 98.3909 187.7296 C98.3281 176.839 98.3281 176.839 95 173 C88.9692 170.2393 82.1574 169.3451 75.6484 168.3086 C73.833 168.0061 72.0177 167.7033 70.2024 167.4001 C69.7283 167.322 69.7283 167.322 67.3293 166.9267 C49.4156 163.9602 31.5873 160.6459 13.8125 156.9375 C12.8025 156.7268 11.7925 156.5162 10.752 156.2991 C-2.3681 153.5462 -15.4052 150.5995 -28.3171 146.9802 C-39.9936 143.7325 -39.9936 143.7325 -46.1445 147.0898 C-47.7077 148.0272 -49.2634 148.9771 -50.8125 149.9375 C-52.4905 150.9454 -54.1703 151.9506 -55.8516 152.9531 C-56.7014 153.4617 -57.5512 153.9702 -58.4268 154.4941 C-62.4493 156.8481 -66.5584 159.0274 -70.6875 161.1875 C-71.424 161.5735 -72.1604 161.9595 -72.9192 162.3572 C-74.6111 163.2413 -76.3053 164.1212 -78 165 C-74.0855 167.2842 -69.7823 168.2252 -65.4297 169.3281 C-64.5494 169.5537 -63.669 169.7792 -62.762 170.0116 C-59.8015 170.7654 -56.8387 171.5089 -53.875 172.25 C-52.8466 172.5082 -51.8181 172.7665 -50.7585 173.0325 C-31.1187 177.9408 -11.3686 182.2632 8.4375 186.4375 C9.135 186.5846 9.8326 186.7317 10.5512 186.8833 C20.3617 188.9506 30.1782 190.9872 40 193 C41.2371 193.2537 42.4742 193.5074 43.7488 193.7689 C47.2601 194.4868 50.7723 195.1998 54.2852 195.9102 C55.3311 196.1235 56.3771 196.3367 57.4547 196.5565 C58.4095 196.7481 59.3642 196.9396 60.3479 197.137 C60.7633 197.2208 60.7633 197.2208 62.8654 197.6452 C65 198 65 198 68 198 C67.7815 207.0346 67.5557 216.0691 67.3213 225.1033 C67.2126 229.3017 67.1062 233.5001 67.0054 237.6987 C65.7233 290.8922 65.7233 290.8922 61.75 315.5625 C61.6433 316.24 61.5366 316.9175 61.4266 317.6156 C52.0924 376.7164 30.8072 432.7089 -9 478 C-9.7734 478.8856 -10.5469 479.7712 -11.3438 480.6836 C-19.885 490.3225 -28.8602 499.0547 -39 507 C-39.591 507.4728 -40.1821 507.9455 -40.791 508.4326 C-59.197 523.1442 -79.1508 535.0937 -100 546 C-100.7983 546.421 -101.5965 546.8421 -102.4189 547.2759 C-104.6066 548.4253 -106.8009 549.5602 -109 550.6875 C-109.6283 551.0148 -110.2565 551.342 -110.9038 551.6792 C-114.5889 553.5283 -117.9053 554.5319 -122 555 C-120.7288 548.7488 -118.1371 545.2214 -113.875 540.5625 C-113.2882 539.9051 -112.7015 539.2477 -112.0969 538.5703 C-106.114 531.9126 -99.898 525.6762 -93.1172 519.832 C-89.0199 516.2866 -85.0145 512.6385 -81 509 C-80.5092 508.5558 -80.0184 508.1115 -79.5127 507.6538 C-50.0805 480.9815 -27.9455 449.2914 -24.125 408.6875 C-22.6782 374.7962 -35.1873 341.4889 -56 315 C-56.6974 314.1105 -57.3948 313.2211 -58.1133 312.3047 C-63.7711 305.25 -69.8012 298.5775 -76 292 C-76.6896 291.2678 -77.3793 290.5356 -78.0898 289.7812 C-82.3926 285.3465 -87.0249 281.5039 -91.8477 277.6484 C-96.436 273.8806 -100.6896 269.7279 -104.9612 265.6089 C-105.2666 265.3176 -105.2666 265.3176 -106.8125 263.8438 C-107.3552 263.3197 -107.8979 262.7957 -108.457 262.2559 C-110 261 -110 261 -113 260 C-112.8556 260.562 -112.7113 261.1241 -112.5625 261.7031 C-108.2541 281.2106 -110.8296 300.0513 -120.1211 317.6211 C-122.3827 320.4846 -123.5095 320.4853 -127 321 C-126.8788 320.3066 -126.7577 319.6133 -126.6328 318.8989 C-121.1611 287.0737 -123.7739 261.8935 -135.2329 231.75 C-138.3631 223.4151 -140.3857 215.6233 -140.3125 206.6875 C-140.3069 205.9533 -140.3012 205.2191 -140.2954 204.4626 C-139.9438 188.5214 -133.3239 176.9615 -122 166 C-109.5132 154.9647 -93.0918 148.1054 -77.8298 141.8455 C-50.138 130.4584 -29.1093 113.8097 -17.1875 85.8125 C-7.5703 61.5963 -4.9612 33.8937 -6 8 C-7 8 -7 8 -9.5 9.3203 Z M-69.875 147.375 C-70.6622 147.7315 -71.4494 148.088 -72.2605 148.4553 C-73.9566 149.2271 -75.6512 150.0024 -77.3442 150.7808 C-79.1239 151.5978 -80.9062 152.4093 -82.6909 153.2153 C-103.6821 162.7073 -123.1765 173.4908 -132.2344 196.0781 C-135.9614 208.5668 -131.2507 220.008 -126.875 231.75 C-126.4014 233.0439 -125.9287 234.3382 -125.457 235.6328 C-124.314 238.7588 -123.1615 241.8809 -122 245 C-121.3974 245.0301 -120.7949 245.0603 -120.1741 245.0913 C-113.6077 245.5855 -113.6077 245.5855 -110.6523 247.6016 C-110.0864 248.2693 -109.5205 248.937 -108.9375 249.625 C-108.6107 249.9879 -108.6107 249.9879 -106.957 251.8242 C-106.3112 252.5422 -105.6654 253.2602 -105 254 C-103.7286 255.1683 -102.4369 256.3149 -101.125 257.4375 C-98.1009 260.0371 -95.1348 262.6885 -92.1875 265.375 C-88.7982 268.4445 -85.335 271.35 -81.75 274.1875 C-70.9824 282.9266 -61.4494 293.0205 -53 304 C-52.2639 304.9307 -51.5279 305.8614 -50.7695 306.8203 C-31.1613 332.1321 -19.1097 361.8515 -18 394 C-17.9728 394.6993 -17.9455 395.3986 -17.9175 396.1191 C-17.2776 414.5829 -19.4108 432.6742 -26 450 C-26.2473 450.6527 -26.4947 451.3055 -26.7495 451.978 C-36.7477 477.7172 -55.1268 499.2626 -75.8672 517.1562 C-78.2643 519.2285 -80.6333 521.3305 -83 523.4375 C-83.3816 523.7772 -83.3816 523.7772 -85.3125 525.4961 C-85.8694 525.9924 -86.4262 526.4887 -87 527 C-86.34 527.33 -85.68 527.66 -85 528 C-83.2827 527.2024 -83.2827 527.2024 -81.2109 525.8945 C-80.442 525.4115 -79.6731 524.9285 -78.8809 524.4309 C-78.0539 523.8968 -77.227 523.3628 -76.375 522.8125 C-75.5249 522.2688 -74.6747 521.725 -73.7988 521.1648 C-65.5629 515.8316 -57.71 510.0628 -50 504 C-49.0048 503.2188 -48.0097 502.4377 -46.9844 501.6328 C-32.6619 490.1339 -19.3521 477.4534 -8 463 C-7.6043 462.5069 -7.6043 462.5069 -5.6016 460.0117 C31.4088 413.1358 50.1815 355.4077 57.3125 296.6875 C57.3939 296.0217 57.4753 295.3559 57.5592 294.6699 C59.4822 278.6764 60.1333 262.6532 60.5625 246.5625 C60.5833 245.8033 60.6042 245.0441 60.6257 244.2619 C61.4687 213.346 61.4687 213.346 60 205 C51.9818 202.9298 43.9459 201.1015 35.8281 199.4688 C33.4716 198.9889 31.1152 198.5088 28.7588 198.0283 C27.5345 197.7794 26.3103 197.5305 25.049 197.274 C-12.8763 189.5467 -50.7125 181.4273 -88 171 C-88 167.37 -88 163.74 -88 160 C-87.2281 159.6219 -86.4562 159.2438 -85.6609 158.8542 C-82.7903 157.4446 -79.9225 156.0294 -77.0564 154.6106 C-75.8169 153.9984 -74.5764 153.3883 -73.3347 152.7805 C-71.5471 151.905 -69.7638 151.021 -67.9805 150.1367 C-66.9069 149.6078 -65.8334 149.0789 -64.7273 148.5339 C-62.3527 147.1984 -60.764 146.0423 -59 144 C-63.0947 144 -66.217 145.7061 -69.875 147.375 Z M-245 174 C-245 176.64 -245 179.28 -245 182 C-246.0634 182.2191 -247.1268 182.4383 -248.2224 182.6641 C-262.3756 185.6016 -276.4688 188.7908 -290.5625 192 C-294.0204 192.7862 -297.4783 193.5719 -300.9364 194.3572 C-303.167 194.8639 -305.3975 195.3712 -307.6278 195.8792 C-312.6228 197.0151 -317.6193 198.1408 -322.6245 199.2305 C-323.471 199.4153 -324.3175 199.6001 -325.1897 199.7905 C-326.7452 200.1288 -328.3013 200.464 -329.8583 200.7954 C-334.8899 201.8899 -334.8899 201.8899 -336 203 C-336.0846 205.6721 -336.1067 208.3165 -336.082 210.9883 C-336.0778 211.7993 -336.0736 212.6103 -336.0693 213.4459 C-336.0532 215.964 -336.0283 218.482 -336 221 C-335.9921 221.7312 -335.9842 222.4624 -335.976 223.2158 C-335.2242 285.7231 -328.7026 347.6317 -302 405 C-301.6176 405.8252 -301.2353 406.6503 -300.8413 407.5005 C-292.2259 425.8821 -281.869 443.276 -269 459 C-268.2639 459.9268 -267.5279 460.8537 -266.7695 461.8086 C-255.236 476.2 -242.5419 489.6274 -228 501 C-227.6912 501.2444 -227.6912 501.2444 -226.1284 502.481 C-216.3463 510.2072 -206.3204 517.3552 -195.7246 523.9268 C-194.1833 524.8859 -192.6606 525.8746 -191.1406 526.8672 C-190.7874 527.0541 -190.7874 527.0541 -189 528 C-188.34 527.67 -187.68 527.34 -187 527 C-187.99 526.67 -188.98 526.34 -190 526 C-190 525.34 -190 524.68 -190 524 C-191.293 522.6953 -191.293 522.6953 -193.1875 521.125 C-224.5312 494.3858 -250.7522 460.2278 -255 418 C-255.1474 415.2521 -255.1867 412.5093 -255.2031 409.7578 C-255.2088 408.9906 -255.2145 408.2233 -255.2204 407.4328 C-255.2298 405.8143 -255.2364 404.1957 -255.2402 402.5771 C-255.2498 400.1657 -255.2809 397.755 -255.3125 395.3438 C-255.4129 380.8045 -253.7824 366.4909 -249 352.6875 C-248.7059 351.8263 -248.4117 350.9652 -248.1086 350.0779 C-242.5098 334.4269 -234.2116 320.0675 -224 307 C-223.2382 306.0164 -222.4763 305.0329 -221.6914 304.0195 C-217.3433 298.5561 -212.7266 293.5741 -207.6523 288.7773 C-206 287 -206 287 -206 285 C-205.4586 284.7873 -204.9172 284.5746 -204.3594 284.3555 C-201.1467 282.5098 -198.7947 279.9602 -196.25 277.3125 C-192.2916 273.2732 -188.2986 269.3791 -183.9922 265.707 C-181.6242 263.678 -179.313 261.5915 -177 259.5 C-173.2653 256.1278 -169.4984 252.7982 -165.6914 249.5078 C-164 248 -164 248 -162.5273 246.3672 C-160.733 244.761 -159.3465 244.4046 -157 244 C-157.4233 225.8356 -164.8792 208.3427 -177.5664 195.4023 C-185.5659 188.2747 -194.7462 186.8284 -205 185 C-216.8014 182.8647 -227.7983 180.3678 -239 176 C-240.9963 175.3223 -242.9953 174.6523 -245 174 Z " fill="#000000" transform="translate(448,0)"/>
<path d="M0 0 C6.4643 4.534 11.5135 10.0116 13 18 C13.5869 27.7975 13.8132 36.2915 7.5625 44.375 C5.2907 46.7023 3.8663 47.6977 1 49 C1.5072 51.5573 2.0154 54.1145 2.5247 56.6714 C2.9709 58.9124 3.416 61.1536 3.8601 63.395 C5.0057 69.1475 6.1822 74.8893 7.4453 80.6172 C7.6745 81.6691 7.9037 82.7209 8.1399 83.8047 C8.5756 85.7938 9.0202 87.7809 9.4753 89.7656 C9.6755 90.686 9.8758 91.6064 10.082 92.5547 C10.1709 92.9491 10.1709 92.9491 10.6204 94.9448 C11.1983 99.5958 11 104.3132 11 109 C-7.48 109 -25.96 109 -45 109 C-45 96.625 -45 96.625 -44.082 92.1614 C-43.8818 91.1612 -43.6816 90.161 -43.4753 89.1304 C-43.2566 88.0935 -43.0379 87.0566 -42.8125 85.9883 C-42.5905 84.894 -42.3686 83.7998 -42.1399 82.6724 C-41.4366 79.217 -40.7186 75.7648 -40 72.3125 C-39.5172 69.954 -39.0355 67.5953 -38.5547 65.2363 C-37.381 59.4885 -36.1953 53.7433 -35 48 C-35.6071 47.7138 -36.2143 47.4277 -36.8398 47.1328 C-41.6176 44.6273 -44.7987 40.8325 -46.4883 35.6953 C-48.2433 26.4513 -48.5531 16.2446 -43.5352 8.0117 C-33.4916 -5.1497 -14.2585 -8.4165 0 0 Z M-35.8086 14.1875 C-38.8185 18.7665 -40.452 22.1063 -39.4375 27.5625 C-38.2965 31.6286 -36.7359 34.7321 -34 38 C-32.9275 38.495 -31.855 38.99 -30.75 39.5 C-28 42 -28 42 -27.5732 44.5266 C-27.4791 56.1008 -29.9829 66.9448 -32.5 78.1875 C-33.1455 81.129 -33.787 84.0713 -34.4259 87.0142 C-34.8218 88.8316 -35.2223 90.648 -35.6278 92.4632 C-35.808 93.2787 -35.9882 94.0941 -36.1738 94.9343 C-36.3337 95.6493 -36.4936 96.3643 -36.6583 97.101 C-37 99 -37 99 -37 102 C-23.8 102 -10.6 102 3 102 C1.7914 95.3526 0.5619 88.7912 -0.9453 82.2188 C-1.304 80.6186 -1.662 79.0184 -2.0195 77.418 C-2.5713 74.9552 -3.1265 72.4934 -3.6919 70.0337 C-8.4847 49.1262 -8.4847 49.1262 -7 43 C-5.1364 41.0757 -3.3227 39.7946 -1.043 38.3945 C2.7962 35.7739 4.423 32.0113 5.6914 27.5898 C6.331 22.2222 3.6066 17.192 0.4883 12.9375 C-4.4912 7.5518 -10.2241 4.6179 -17.4375 3.4375 C-24.9329 4.621 -31.2134 8.1129 -35.8086 14.1875 Z " fill="#000000" transform="translate(328,346)"/>
</svg>
